/* XPM */
static char *bitcoin64_xpm[] = {
/* width height num_colors chars_per_pixel */
"    64    64      256            2",
/* colors */
"`` c #6c4a1c",
"`. c #b4a664",
"`# c #e4d684",
"`a c #947634",
"`b c #dcb05b",
"`c c #b48e39",
"`d c #7c5e28",
"`e c #dcd0a4",
"`f c #dcc460",
"`g c #dcd6bc",
"`h c #ac782c",
"`i c #c4b294",
"`j c #9c6121",
"`k c #f4c56b",
"`l c #ccbb71",
"`m c #c49139",
"`n c #f4e68f",
"`o c #dcc475",
"`p c #ac8331",
"`q c #cca753",
"`r c #ecd994",
"`s c #846a34",
"`t c #b49a54",
"`u c #9c6c29",
"`v c #dcce7c",
"`w c #ac8445",
"`x c #ccb264",
"`y c #845119",
"`z c #f4d673",
"`A c #fceec4",
"`B c #dcbe58",
"`C c #ac8f4c",
"`D c #fce072",
"`E c #a48342",
"`F c #8c5f23",
"`G c #c49a3c",
"`H c #ac6e24",
"`I c #cca967",
"`J c #ecc575",
"`K c #ecd06a",
"`L c #ac783f",
"`M c #a47831",
"`N c #bc8633",
"`O c #9c722c",
"`P c #84561c",
"`Q c #dcbd6e",
"`R c #8c602c",
"`S c #ecc559",
"`T c #ece4c8",
"`U c #f4cf60",
"`V c #dcca7a",
"`W c #c49d55",
"`X c #bcaa84",
"`Y c #ccc284",
"`Z c #bc8a44",
"`0 c #f4f1e8",
"`1 c #bc904c",
"`2 c #945a1c",
"`3 c #745224",
"`4 c #ecd079",
"`5 c #ac8a47",
"`6 c #ac7e33",
"`7 c #f4e69c",
"`8 c #ac8a3c",
".` c #ccae5c",
".. c #946b2b",
".# c #f4da85",
".a c #bcae6c",
".b c #9c6d35",
".c c #f4e087",
".d c #9c6624",
".e c #ccb56e",
".f c #a47e45",
".g c #845925",
".h c #e4e2d8",
".i c #f4d076",
".j c #fcfae4",
".k c #b49644",
".l c #dcc688",
".m c #b48333",
".n c #d4a953",
".o c #b49651",
".p c #f4de98",
".q c #b49a5c",
".r c #b48546",
".s c #fcd873",
".t c #ecbe63",
".u c #ccae65",
".v c #ecbe6c",
".w c #8c662e",
".x c #d4a254",
".y c #946d3d",
".z c #7c4d1b",
".A c #c4a75b",
".B c #dcb660",
".C c #bc8e3b",
".D c #e4ca6c",
".E c #b4792c",
".F c #ccbe84",
".G c #fcee91",
".H c #946614",
".I c #a47e32",
".J c #e4bd6d",
".K c #ecca6b",
".L c #c4a257",
".M c #eceae0",
".N c #947644",
".O c #e4c363",
".P c #d4c294",
".Q c #c4964d",
".R c #e4c475",
".S c #a46c26",
".T c #dcce88",
".U c #b4904e",
".V c #fce185",
".W c #ecde84",
".X c #a4621e",
".Y c #d4bc70",
".Z c #fce78a",
".0 c #e4bc63",
".1 c #946023",
".2 c #cca24c",
".3 c #ac7e3e",
".4 c #9c7236",
".5 c #ecc469",
".6 c #d4c378",
".7 c #f4f6f4",
".8 c #ecd186",
"#` c #d4b56d",
"#. c #ccba8c",
"## c #ecded4",
"#a c #d4c6ac",
"#b c #d4be9c",
"#c c #dcd1c1",
"#d c #e4d6b4",
"#e c #e4ded4",
"#f c #fcf6dc",
"#g c #f4eabc",
"#h c #c4b274",
"#i c #7c5a24",
"#j c #fceeac",
"#k c #f4e29a",
"#l c #f4eed4",
"#m c #744e1d",
"#n c #bca25f",
"#o c #f4ca6d",
"#p c #c49644",
"#q c #a48a4c",
"#r c #ac7229",
"#s c #bc8a39",
"#t c #bc9650",
"#u c #947234",
"#v c #c4baa4",
"#w c #fcfefc",
"#x c #c4a866",
"#y c #ecd680",
"#z c #845f29",
"#A c #e4d9c9",
"#B c #8c6c30",
"#C c #bc9a4a",
"#D c #d4b35a",
"#E c #cc9d4b",
"#F c #fcd25c",
"#G c #cc9e54",
"#H c #c4ae74",
"#I c #7c531f",
"#J c #ece4da",
"#K c #ecca77",
"#L c #94723c",
"#M c #e4ca78",
"#N c #b48a47",
"#O c #b47e2e",
"#P c #a46623",
"#Q c #d4ae65",
"#R c #94662d",
"#S c #e4b65d",
"#T c #b47e3c",
"#U c #fcf6ef",
"#V c #fce294",
"#W c #e4d2ac",
"#X c #e4cf7c",
"#Y c #d4aa64",
"#Z c #8c591b",
"#0 c #94612d",
"#1 c #fce9a2",
"#2 c #fcda84",
"#3 c #c4af69",
"#4 c #a46e35",
"#5 c #8c5a25",
"#6 c #fcd175",
"#7 c #e4c284",
"#8 c #bc9b61",
"a` c #9c783e",
"a. c #e4d084",
"a# c #fcf2dc",
"aa c #744a1c",
"ab c #dcb264",
"ac c #b48f44",
"ad c #dcc26c",
"ae c #ac7834",
"af c #9c622c",
"ag c #c49144",
"ah c #ac833c",
"ai c #cca95c",
"aj c #ac8654",
"ak c #f4d87c",
"al c #dcbb64",
"am c #ac8e5c",
"an c #fcdf7c",
"ao c #a4854c",
"ap c #c49b4c",
"aq c #a4793c",
"ar c #bc863c",
"as c #dcbc7c",
"at c #f4ce6c",
"au c #c49e64",
"av c #945a24",
"aw c #946d34",
"ax c #ccb67c",
"ay c #b4843c",
"az c #d4a95c",
"aA c #b48554",
"aB c #fcd97c",
"aC c #bc9044",
"aD c #b47a34",
"aE c #e4c36c",
"aF c #b48e5c",
"aG c #fce994",
"aH c #d4c584",
"aI c #d4cabc",
"aJ c #ecd98c",
"aK c #845e34",
"aL c #8c6a3c",
"aM c #bc9d54",
"aN c #d4b264",
"aO c #7c562c",
"aP c #ece6e4",
"aQ c #bca661",
"aR c #9c7633",
"aS c #a4722c",
"aT c #b48a3a",
"aU c #d4ae58",
"aV c #d4be7c",
"aW c #cca255",
"aX c #a47235",
"aY c #dcca84",
"aZ c #9c662c",
"a0 c #bc9644",
"a1 c #b4965c",
"a2 c #ccae74",
"a3 c #8c663c",
"a4 c #dcb66c",
"a5 c #946624",
"a6 c #a47e3c",
"a7 c #d4c2a4",
"a8 c #ac7e4c",
/* pixels */
"#w#w#w#w#w#w#w#w#w#w#w#w#w#w#w#w#w#w#w#w#w#w#w#U#f#k.8aE#D.n#EaC.C.CaC.C.Q#Q.l`T`0#w#w#w#w#w#w#w#w#w#w#w#w#w#w#w#w#w#w#w#w#w#w#w",
"#w#w#w#w#w#w#w#w#w#w#w#w#w#w#w#w#w#w#w#w#w`A.c`U.Jaz.n#E#paT#NayaeaS.S`h.d#P.S#PaDai#W#U#w#w#w#w#w#w#w#w#w#w#w#w#w#w#w#w#w#w#w#w",
"#w#w#w#w#w#w#w#w#w#w#w#w#w#w#w#w#w#w#w#V`zat.5#S.n.2`qap`1#N`wao`Mae.3`M`u.d`u`2#Z`2.X`N#Q#J#w#w#w#w#w#w#w#w#w#w#w#w#w#w#w#w#w#w",
"#w#w#w#w#w#w#w#w#w#w#w#w#w#w#w#w#w.Z.s`z`Ualal.BaUaz`qap#t.faj.4`MajaqaS#4aZae`u.1`2`2`2.X.E.n`0#w#w#w#w#w#w#w#w#w#w#w#w#w#w#w#w",
"#w#w#w#w#w#w#w#w#w#w#w#w#w#w#w#1`Dan`4.0`Q.5.5`x`Waz#G.U#Nahac.3.4.4aq#R#R`R.b#5#0`j`j.1`2`2.S#Oaz`0#w#w#w#w#w#w#w#w#w#w#w#w#w#w",
"#w#w#w#w#w#w#w#w#w#w#w#w#w.jan.Zan.R`o#X#`.K.iaiaiaM`1`1.U.f.3aw..`uaw.g.b`F#R#R`y`j`jaZava5.1.X.S`N#W#w#w#w#w#w#w#w#w#w#w#w#w#w",
"#w#w#w#w#w#w#w#w#w#w#w#w#jan.Z#y`#`4.Rak#K#`.B.B`W`C.L#ta6#Nap#N#N.raX`Maw.1`u`R#5`jaZ#4#P.b#Z.d`j`H.Eas#w#w#w#w#w#w#w#w#w#w#w#w",
"#w#w#w#w#w#w#w#w#w#w#w.Z.Zan#X#y.Z.V#M.i.O.L.0.B.o#Y`I.oaFao.f.fa`#L.4.y.w.4aX.g#0.S#5.d`j#Z.X`H.S`u#r.E`q#U#w#w#w#w#w#w#w#w#w#w",
"#w#w#w#w#w#w#w#w#w#w`D.Zan#XaY.canan.Y.uaN#M.5`I.q.q.U.Uaha6a6`w.3`M.4.1#R`R`RaKaZ#0#P#R`y#5.d.S#r`u.S`h.E`G`0#w#w#w#w#w#w#w#w#w",
"#w#w#w#w#w#w#w#w#w`D.V#y`oa..ca..lakakaB.Y#H.A`IaNaM`Wap#t`1.rah`waq.4.b`M.b.1#5.1#5`P`R.S#P#P`uaqae`M`u#r#O`m`0#w#w#w#w#w#w#w#w",
"#w#w#w#w#w#w#w#w`D.V`4#y#X#yaG#X.Y.ZanaV#3`I#`aUaiaW.L`W.U.U`wa6aq.b.4aX`uaZ#R#5#5.1#5#5#5`u`H.d.S#r`u`u`h`h`N`G#U#w#w#w#w#w#w#w",
"#w#w#w#w#w#w#wanan`4`4.VaG#X.e`l.K.p#H`x`4.0.`aN#Q.L#8ap.Uac.r#NahaX`M.b..#0.1#0`jav#5`jav`PaZ#r#R`F.1.E#O`h`h`N.2#w#w#w#w#w#w#w",
"#w#w#w#w#w#w#1anaB`o.#.Z.Z#X#y`4.F#3`oaBan#Kasai.L.Lai`W.Uajaha6aq.baw#R.b.SaZ`F.1#0.1.1av.1#Z`R.d.S`u.E.E.m`M.m#s#`#w#w#w#w#w#w",
"#w#w#w#w#w#f.saB#M.8.##M#y.Z.Z.l#h#XanaB#M`QaNaN.uaW`WaMaC.C#t#t.f`MaS`u`u#R#R`FaZ.1av.1.1.1`j.1.1.S.E`haeay`M`6`N#s`e#w#w#w#w#w",
"#w#w#w#w#w.s.s.R.Yak.Z.Y#yaG`Y.e.Zan.#`o#`ad#`.Lai`b.n.naWa2`I`1.baS#OaD.Sae.Sav#Z.1.1#Z.1`j.1.da5.1aS.E`M.m.maq`M.m.C#J#w#w#w#w",
"#w#w#w#w#VaB`J`4`4`o.R.Y.caY`x.Z.Zan.6`Q#MaN#Q.0.0#SaU.xau#Gag#s`L`uae.3ae.S.S#P.S`Raf.S`2#Z`j.1`j.da5`haqaS`u`O.m.m`mai#w#w#w#w",
"#w#w#w#w#F.i#Kan.Z`o`l`VaH#h.Z.V.c.6.R#M.eaE.i.5.0`b`b`q`caC#p#sayaw`u#r.S.Saqa8`w#Ta8aq#4`j.1.d.1`u.Sa5`uaS`u`N`m.m#s.C#J#w#w#w",
"#w#w#wan#6aE`4#2anak.Z`n#h`#aG.c.6#M.l.Y.i.iat.5.0al`b.xag`w#par#s`M#Rae.3ajaAaX`H#4#P.S`H`u.d.1.d.d`u`u.S.m.m.m`N#s`p#s`q#w#w#w",
"#w#w#U`U`k.J`4.8as.caGax`o.GaGan#yaY`o.i.#.8aN.0.0#S`b.2#pacaCaCay#Oaq#Na8ae.S#P`j.d.X.S.S#P.d.d.1.S`u.S`OaS`N.m#N.r`M.C#s#A#w#w",
"#w#w.V#6.R#K#2ak`Q.VaH`laG.Z.GaGa..6aJ.p.#ak.B.B.0.0`b.n.QagaTayay.ray`L.S.S.SaZ#P`j`j#P.d#P.1`j.S`h#r`u`h`u`hay.CaT.maT.C`q#w#w",
"#w#w`U`ka4#x#K`4`Q`V`l#y.GaG.Zak.Y.#.#aB.i.iaEai.5.0`b.n#p.LauaC#Oayae`h.SaS.S.d#P`j`j#P.d#P.d.1.S#r`h.S`O`h`Ma6.m`p#u`M.C`c#J#w",
"#w`A#o.t`J.i`Q#x`Vax.Y.Z.Z.Z.VaH`#aG#Makakat.K`q.B#S.n.ua2`I#G#sayae`haSaS.S.S#P.1`y.1#P#P.S`H.1.d#r`h`h.S`M`O`Oaeaw.m.C#s#s.P#w",
"#wak`k.5.ian`J`4an.e#y.Z.Z.Z#M`VaG.Z`z#MaB.iat#`aU.Ras#Q#Gag.Caray#Tae.S#raZ#5`Paa`y#Z#P`j.d`H`F`F#r.E.E`h`M`h`6#s`M`m#saT.Ca0#U",
"#w#F.val#o#o.8an#K`o.Zan.V.V.FanaGan.V.R`4.iat.K.J.J.B.n#EapaCayayae`6#r`uaa`P.1.X`jaf.d`j#P`H.z.H#r`h.E`haS`h`M.m.C.maTaT#s.m.h",
"#f`k.va4#K#7a4an.l#MaG.V.Z#X`vaGaG.Z`D.8`4akat.5.0.B`b.nap#p`Zarayae`hae`u`P#P.SaXa8a8`j#P.S`y#I`H#r.E.E.m`M`O`M`M.maT#Na`aT.C#a",
"#1`J.0`J#6#2.R#K.e`4aG.Z.Zak.VaG.Zan.p.p.#.s#K.5.0#SaU.n.Q.x`m.4#zaSaeaS.S#0.4aFaAaX#P`j.X.1.waA.r`h#r.E.m`h`h`6`Oac#s.m`p#s#saQ",
"ak`kabau.Ral#x.e.e.V.V.Z.Z.Z.Z.V`r#k#kanaBakat.5.0.0#S`b#pa6#z.w`M`u`M.S.S`u`L#r#P.d`j#P.d#P#rae#raS.S.E#O.m`N.m..aw.I`paw.I.Cac",
"#o.5#S`J.J`I.i#M.eaG.V.V.Z#V.p`7#1.Van.Vak.i#o.O.0al`b`w`EaRa6ay#O.3`LaS.S.S.SaZ.d#P`j#P.S#P#P.S`H#ra5`h#O#O.m#s`M`6.I`O`p.m.CaT",
".5.t.J#6.i.i#2as`Q.Z.Z.Z.V`r.ZaGaG.V.V#2`z#6at.5.0.t.k`E#E#E.C`1#8aFay.S.S.SaZ.S.S#P`j#Z.z.1.S.S`H`h`uaS#O#O.m`N`M.I#s.m.C#s#saT",
"`S.t.J#o`J#o#2.Y.R.Z.V.Z.ZaJ.V.Z.V.Zananan#Kal.K.t.B.naC#E`W#xau`ZaeaS#r.b`j.d`H#P#Zaaaa`P.1.S`H.S#r#r.H#O.m`N#s`6`M#saT#s`c#saT",
"`k#Sab`Jas.RaB.e#K.Z.Z.ZaG.c.#.Z.Z.G.Z`4.Y`t.o.0.K#S`baWa2`I.Q#Taeayae.S#r#Paf.d.zaa#Z.X.X`j#P.S`H#r`h`F`h.m.m#s`p`O.CaT`w.f.m.m",
".t.tab.i#6asal`x`4.V.Z.Z.Z.c#X.G.Z#M.6#n#nalat.B.0.BaUaU.xaCaCayayay#O#r#4`u`j.d.z`2`j.S`Laq.S.S`H#r.E#zaS`N.m`N`paw`waC`pa`#saT",
".t.t#Q#`alaN`o.e`4.V.V.Z.ZaGaJ.Y`..a`V`4.saB`4#MaE`b`b.naW#paCaraC`N#0`3`F.S#P#P#Z#0a8aAaq.S`H.S.S`h#r#I#O#O.m`Nayaw.Iah`O`MaTaT",
"`S.J#Y.J`Ial#2aN`4.Vanan.V.GaG`l`o`n.Gan.8`r.8.i.0`b`b.n#Eap.Qay#R#i#z#R.d.daZ#P`j#4aX.S.X`j.S.S#r`h`F`F`N#O`N.mahaR.m.4`M.I#s.m",
".5.t.J#6`J#6#2.Y.R.V.V.V.VaG.Z.Z.G.V.p`r.p.i.i.5.0.B`b.n#Eagaq`d`R`M#raS`uaZ`j.S.d.d`j#P`u#P.S.S#r.S`P`h#O.m`N`NahaR.C.maT#s`c.m",
"`S.t.J#6.i#KaB`oad.Z.V.Z.Z.ZaG.Z.p.p#kan.i.i.i.K.5.B`b`qaWac`RaT#Oae`M`LaFaq`j.S.S`j`j.S#P#P.S`H.1#m`O#O.E.m.m#s.I`M#s.maT#s#saT",
"#o.t.B.v`J.J.i`oalaGan.VaGaG.Z.V#y.c.ZaB.i`z`z#oal.2aW.n.2aCa6.r#NaF`wajae`j.d#P.d`j`j.S#P`j#Z`P`P.S.E`h#O#O.m.Ca`.Iac#NaT`w.C`8",
"`4`ka4aN#2ak.eaN`Q.V.ZaGaG.Z.V.Zak#Manan`z.iataiao`E#t.x.2agac#N#8.raX.S.S`j.1`j`j`2.1.d`yaa#I.d#r`h.E`h#O.m.m#sawa6aC.CaRa6.Cac",
"#k`k.vasaE.J.Y`4.Y`4#2aGaGaGaG.Zan#Makan.#.saE`Cai#S`G`q`W#pag`1`L`h.S`u.S.S`j`u`j`2`j`y.z.H`H`HaS#raS`6`h.m.maTaw`6`p`M`MaT.C#8",
"a#.5.5`I#Q`I.5an#7`o.R`n.G.Z.Z.VaG`4`4anaB.i.KaU#D#S`Iai#Eap`Zay.m`M#4.S#4.S.S`j`j.1`j#Z.1`H.S.S`HaS`O.E#O#O`Na6`O#s#L`OaRaT#sa7",
"#w`S.5.0#o`4.ian`4`o`o#y.ZaGaG.Z.Zan.8an`z.i.5al.u#7#`az#E.QaCaT#T`M.Sae`u#5#m.z.1`j`j`j`y`j.S.S.S`h`u`h#O.m#saRaeaT.m.mah.C`p.h",
"#wat`k.5#6aB`Jak.#`o#M#X.V.GaG.Van.Z#M`4.i.i.5.5.0.BaU.nap#paCaCay#O.b`P#m`F.1.1.1`j`j`j.1#Z.S.S#r...S`6`h.m`paw.mah.m#saT.Cac`0",
"#w#g.5.5`J.8.8#K#M.Y.D`o#y.ZaGaG.Z.Vak.R.iat.K.5.0`baU`q.2.Q.Cayah.w#m.g.SaS.S.S.1.1.d`j`j.1.d`H.ba5`h.E#O.ma6aq#Nah`paTaC.m#.#w",
"#w#U`S#oa4asaB#2`x`o`o#X`V.Z.G.Z.V.Vanad.i.K`K.5.0`b`b.2.2#EaC#sae#z`u.SaX.S`u.d.1`2`j#P`F#I`jaS`RaS`h`h#Oay#u`uaT`Na`a`.C`p#e#w",
"#w#w#y#o#o.J.R`Q`oan`o#X`o#y.G.V.Zan#2aEaE.K`JaE.0.0.B.2`wahaC#N.m`u#RaS`u.d.S`j.1#Z`yaaaa#Z.S#R.d#r`h`h.ma6..ah`M`M..#saT#t#U#w",
"#w#w#U`S.i.R`xal`Q.V`4`o#X#M.c`4ak.Vak.iad.K.i#o.0.Aacaoa`a`.Cay#Oae...S.d.S`u`j`j#Zaa`y#P.S...1`u#r`h.Eahaw`h`6aw`M`M.C.m#c#w#w",
"#w#w#w`4#6.5akan#2.#.V#M#X`V#M#M.6ak#2aB`4aE.iai`Eaoac`G`qaCahaTah`6#Ra5`u.d`u`j`2.1`j`jaS.wa5.ba5aS#r.maL.S.m`p.m.maTaTap#w#w#w",
"#w#w#w#U`SaB.i#2.V`4.caV.e`4`o#X`V`o`4.sak#D`C.oaM.B.B.n.2#pahahayaeae.g`u.d.d`j.1`2`2`u`R.1.b`F.d.S.m`a.way`w.m.m`NaC`6#A#w#w#w",
"#w#w#w#wak.i#6.ia..V#y.Y#M`o`#ad#X#Mal`4.s`o`x.K`S#S.n`q#pa0ay`Mar`M#zaa`u.d.1.1.1`j#0`P.1#R#5.d.S`ha``F`h`6.m`M`6ac.maM#w#w#w#w",
"#w#w#w#w#w.5an`4.Y.8`#`V.V#X`o`4.6#Xad.Y.5#KaNaN#D`baU`q#p.Q`c`M#z`3#z`u.S.1`j.1`uaK`y#R#R#5`j.S.Sa6`F`ha6`M`M.wah#s`p#d#w#w#w#w",
"#w#w#w#w#w#l.KanaB.Y`l#X.can#M.6.Kad.R.D.Y#D#`aU.L`W.Lap.QaCaCahaw`M`haS.4aw`R`P#5`R#0`P#5`j.d`M.4#zaS`h`M`u`u.m#s`6#b#w#w#w#w#w",
"#w#w#w#w#w#w.p.ian#X.V.Zan`4.c.e#h`4ad`QaE#`ai.`#DaW#t.U`5`E.3a6aqa`awaw`R`F#5`R#0`P`P`2.1`j`Ma3aO.S`M.S`h`6`hah#O#n#w#w#w#w#w#w",
"#w#w#w#w#w#w#w`KaB.Zan.V.Z.##k.6`4`l`Q#M.Y`Balai.LaM`W#C#Nah.fa`.4...b..#R#0`R`R#5`R`P`2.S.baK`P.S`M.4`O.E`p#s.m`8#U#w#w#w#w#w#w",
"#w#w#w#w#w#w#w#w.O.V.Zan.6a..V.Y.c.c.Y`x.R`Q#`aiaW.L.oac`Caha6a6aR.4#u#R`R`R`R`R`F.g#5.baL#i#Z.S.4.S`u.w`M#s.m`p.M#w#w#w#w#w#w#w",
"#w#w#w#w#w#w#w#w#w`K.Zan#M#M`l.Y.D.Vak`oaQaNai.`.L`W#C.Uah`EaRa`aw.4aw`R`R`F`R`R#R`Ra3aK#I.1.Sa5`F`F`F`O`6.m`p###w#w#w#w#w#w#w#w",
"#w#w#w#w#w#w#w#w#w#U`fan.Z`4.6`n.Vak`4`4#3.0.`.o.qaM.L.L.Ua6aq.4aw....#R.b.y.ya3aO.z#5#ZaZ#R.g`j.d.H.4.m`h.I#J#w#w#w#w#w#w#w#w#w",
"#w#w#w#w#w#w#w#w#w#w#w`fak.Zananan.##y.s`Qal.5aN`C`5aoaoaoaoao`E.fa`#L.yaL`3aO#I.z#Z#5.b.1#Z`F.d.S`Mae`h.I.M#w#w#w#w#w#w#w#w#w#w",
"#w#w#w#w#w#w#w#w#w#w#w#wa.`K.Z.V.V.6aN.D.L.A.OaN.Lai.A`5`E`M#u.w.w#z#z.g#z`P.b#z`y`y`F#I#Z.z`y`u`MaS.S.o.7#w#w#w#w#w#w#w#w#w#w#w",
"#w#w#w#w#w#w#w#w#w#w#w#w#w`T.O.Van`4#Mai.Y`U.5.L.U.o#t`5.Ua6`5.f.4a`.4#R.g`PaK.z`y#Z`2.1.z#I...S`u`u`i#w#w#w#w#w#w#w#w#w#w#w#w#w",
"#w#w#w#w#w#w#w#w#w#w#w#w#w#w`0`#`B.sanal.K.5`QaM`C`C.Uaoah#Baq.w.w.w.w#z`P.z.z#Iaa`y#Z`u.gaZ.d.H`5#c#w#w#w#w#w#w#w#w#w#w#w#w#w#w",
"#w#w#w#w#w#w#w#w#w#w#w#w#w#w#w#w`0#M`B.i.s.KaEaUaMap`5ah`Eawa`#L#z.g.w#m`y#m.g#m`P#0.1#5.1`Fah#c#w#w#w#w#w#w#w#w#w#w#w#w#w#w#w#w",
"#w#w#w#w#w#w#w#w#w#w#w#w#w#w#w#w#w#w.M.Y#DaE.5.O.0azap#Caca6.N#B#z.b.w`R`R`R#R#0#R`2`y#I.IaI#w#w#w#w#w#w#w#w#w#w#w#w#w#w#w#w#w#w",
"#w#w#w#w#w#w#w#w#w#w#w#w#w#w#w#w#w#w#w#w.7#W.``q`q`q`q#CaC`1a`.wa``M.b...1.1#Z#Z`P`a`X#J.7#w#w#w#w#w#w#w#w#w#w#w#w#w#w#w#w#w#w#w",
"#w#w#w#w#w#w#w#w#w#w#w#w#w#w#w#w#w#w#w#w#w#w#U.7`g#haM.k`c`p.I`M`O...H....#uam#v.h#U#w#w#w#w#w#w#w#w#w#w#w#w#w#w#w#w#w#w#w#w#w#w"
};
