/* XPM */
static char * E:\workspace\github\bitgold\share\pixmaps\bitcoin32_xpm[] = {
"32 32 475 2",
"  	c None",
". 	c #E8A60E",
"+ 	c #EAAA12",
"@ 	c #ECAD17",
"# 	c #EEB21E",
"$ 	c #EEB525",
"% 	c #EBB52A",
"& 	c #EBB832",
"* 	c #ECBC39",
"= 	c #EEA402",
"- 	c #EBA405",
"; 	c #EEAB10",
"> 	c #DC9F1F",
", 	c #E0A728",
"' 	c #E0A92E",
") 	c #E0AB33",
"! 	c #DFAC36",
"~ 	c #E0AE39",
"{ 	c #DFB03B",
"] 	c #DFB241",
"^ 	c #F0C747",
"/ 	c #EAC24A",
"( 	c #EBA203",
"_ 	c #EAA50D",
": 	c #DDA01F",
"< 	c #DDA429",
"[ 	c #F2B827",
"} 	c #EFB82D",
"| 	c #EEBA32",
"1 	c #EBB936",
"2 	c #EDBC3A",
"3 	c #EEC040",
"4 	c #EFC344",
"5 	c #EEC345",
"6 	c #DBB046",
"7 	c #DCB248",
"8 	c #F0CF5D",
"9 	c #ECCC5C",
"0 	c #EBA202",
"a 	c #ECA200",
"b 	c #E2A119",
"c 	c #E1A624",
"d 	c #F0B525",
"e 	c #EEB529",
"f 	c #EEB72E",
"g 	c #EEB932",
"h 	c #ECBA37",
"i 	c #EEBD3A",
"j 	c #EDBF3F",
"k 	c #EDC144",
"l 	c #EDC348",
"m 	c #EBC34B",
"n 	c #ECC651",
"o 	c #F2CF59",
"p 	c #DDB74E",
"q 	c #E5C560",
"r 	c #EBCE3D",
"s 	c #EDA300",
"t 	c #DEA124",
"u 	c #EAAE1F",
"v 	c #EEB225",
"w 	c #EEBD3B",
"x 	c #EDC142",
"y 	c #EDC64F",
"z 	c #EDC659",
"A 	c #E7B332",
"B 	c #EFCD5A",
"C 	c #EDCC5A",
"D 	c #EDCD5E",
"E 	c #E7C85F",
"F 	c #E2BF27",
"G 	c #EDC908",
"H 	c #ECA300",
"I 	c #DEA122",
"J 	c #EDB01E",
"K 	c #EEB325",
"L 	c #EEB52A",
"M 	c #ECB933",
"N 	c #F0C451",
"O 	c #EEBF46",
"P 	c #EDBC3C",
"Q 	c #ECB633",
"R 	c #E9AA17",
"S 	c #E8A100",
"T 	c #DE9E08",
"U 	c #EFD060",
"V 	c #EDCE5F",
"W 	c #EBCF63",
"X 	c #EDD15D",
"Y 	c #EAC80D",
"Z 	c #E3BB17",
"` 	c #EDC308",
" .	c #E3A113",
"..	c #EBAF21",
"+.	c #EEB326",
"@.	c #EEB933",
"#.	c #ECBA38",
"$.	c #F0C85A",
"%.	c #E69B00",
"&.	c #EAA200",
"*.	c #E8A400",
"=.	c #E7A402",
"-.	c #E9A401",
";.	c #E9A501",
">.	c #E1AB25",
",.	c #EED060",
"'.	c #EBCE64",
").	c #EDD158",
"!.	c #EDCB08",
"~.	c #EBC60A",
"{.	c #E6BC0B",
"].	c #E4B811",
"^.	c #ECBE08",
"/.	c #EEA401",
"(.	c #EAA307",
"_.	c #E5AA24",
":.	c #EEB226",
"<.	c #EEB72F",
"[.	c #EEBE3C",
"}.	c #ECBF3E",
"|.	c #ECC44C",
"1.	c #E9BE45",
"2.	c #E9AC1A",
"3.	c #EBAB0E",
"4.	c #E2B73F",
"5.	c #EBCD64",
"6.	c #EDD050",
"7.	c #EDCA06",
"8.	c #ECC60A",
"9.	c #EAC209",
"0.	c #E7BC08",
"a.	c #DCAD10",
"b.	c #EFBF07",
"c.	c #EBA404",
"d.	c #E2A319",
"e.	c #EFB426",
"f.	c #EEB52B",
"g.	c #EEB830",
"h.	c #EEBA34",
"i.	c #ECBB38",
"j.	c #EEBE3D",
"k.	c #EDC041",
"l.	c #EDC246",
"m.	c #EDC44A",
"n.	c #EAC348",
"o.	c #ECB433",
"p.	c #EAAB0F",
"q.	c #ECB522",
"r.	c #E0BC52",
"s.	c #EDD047",
"t.	c #EDCA05",
"u.	c #ECC609",
"v.	c #EAC109",
"w.	c #E8B907",
"x.	c #EAB804",
"y.	c #E0AC0F",
"z.	c #EAB406",
"A.	c #EBA70B",
"B.	c #E5AB26",
"C.	c #EEB62B",
"D.	c #EEB934",
"E.	c #ECBB39",
"F.	c #EEBD3D",
"G.	c #EBC44E",
"H.	c #EECD61",
"I.	c #EAA910",
"J.	c #EAAB10",
"K.	c #EAB423",
"L.	c #EBBB35",
"M.	c #E2C133",
"N.	c #ECCA06",
"O.	c #EBC509",
"P.	c #E7BB08",
"Q.	c #E8B906",
"R.	c #E7B506",
"S.	c #E6B005",
"T.	c #DFA70C",
"U.	c #ECB404",
"V.	c #E8A50C",
"W.	c #E2A314",
"X.	c #F1BA2D",
"Y.	c #EEBA35",
"Z.	c #EDC042",
"`.	c #EDC44B",
" +	c #EBC54F",
".+	c #EDC954",
"++	c #F0D578",
"@+	c #E8A503",
"#+	c #EAB424",
"$+	c #E9BB37",
"%+	c #DFB13F",
"&+	c #F0D006",
"*+	c #EAC009",
"=+	c #E8B807",
"-+	c #E7B406",
";+	c #E6AF05",
">+	c #E5AB04",
",+	c #DFA303",
"'+	c #E8AE09",
")+	c #EBA910",
"!+	c #E6AB1F",
"~+	c #EFB931",
"{+	c #EEBE3E",
"]+	c #EDC347",
"^+	c #EDC54B",
"/+	c #EBC64F",
"(+	c #EDCB59",
"_+	c #EFCE67",
":+	c #EAB21F",
"<+	c #E9BB38",
"[+	c #ECC44A",
"}+	c #E2BC42",
"|+	c #ECC707",
"1+	c #EAC008",
"2+	c #E5AA04",
"3+	c #E2A604",
"4+	c #E3A202",
"5+	c #E3A507",
"6+	c #E7A704",
"7+	c #ECAC17",
"8+	c #E7AF27",
"9+	c #ECBB3A",
"0+	c #EDBE3E",
"a+	c #EDC143",
"b+	c #EDC54C",
"c+	c #EDC955",
"d+	c #EDCD5D",
"e+	c #EECC63",
"f+	c #E9BA36",
"g+	c #ECC54B",
"h+	c #ECCD62",
"i+	c #E2BC1B",
"j+	c #EBC208",
"k+	c #E7BA08",
"l+	c #E8B707",
"m+	c #E7B306",
"n+	c #E5AE05",
"o+	c #E2A504",
"p+	c #E3A102",
"q+	c #E29E01",
"r+	c #E29F04",
"s+	c #E7A403",
"t+	c #ECAF1C",
"u+	c #E8B22D",
"v+	c #ECBC3A",
"w+	c #EDBF3E",
"x+	c #EBC650",
"y+	c #ECCB63",
"z+	c #ECC54D",
"A+	c #EDCE62",
"B+	c #EED01A",
"C+	c #E1B708",
"D+	c #E7BA07",
"E+	c #E6B206",
"F+	c #E1A504",
"G+	c #E29D01",
"H+	c #E19B01",
"I+	c #E19D03",
"J+	c #E4A103",
"K+	c #ECB223",
"L+	c #E7B432",
"M+	c #EDBE3F",
"N+	c #EDC54D",
"O+	c #EDCB5A",
"P+	c #EDCF62",
"Q+	c #EBCE5B",
"R+	c #EFD069",
"S+	c #EDCE16",
"T+	c #F0CE0A",
"U+	c #DEB007",
"V+	c #E7B607",
"W+	c #E6B306",
"X+	c #E5AA03",
"Y+	c #E1A403",
"Z+	c #E2A102",
"`+	c #E19C01",
" @	c #DF9C04",
".@	c #E59E03",
"+@	c #EBB329",
"@@	c #E9B837",
"#@	c #EBC651",
"$@	c #EDC956",
"%@	c #EBD061",
"&@	c #ECCB08",
"*@	c #EFD680",
"=@	c #EDCE13",
"-@	c #EECC0A",
";@	c #F2D20B",
">@	c #DAA505",
",@	c #E7B205",
"'@	c #E6AD04",
")@	c #E4A903",
"!@	c #E1A404",
"~@	c #E29C01",
"{@	c #E19A01",
"]@	c #E09A01",
"^@	c #E29D04",
"/@	c #E39B02",
"(@	c #EBB72E",
"_@	c #E9BA3B",
":@	c #EDC449",
"<@	c #EDC64D",
"[@	c #EBC751",
"}@	c #EDCA56",
"|@	c #EDCC5B",
"1@	c #EDCF63",
"2@	c #EBCF5C",
"3@	c #EDCB0A",
"4@	c #EFD138",
"5@	c #ECCB09",
"6@	c #EDCA0A",
"7@	c #E8C208",
"8@	c #E5AF05",
"9@	c #E4A803",
"0@	c #E1A304",
"a@	c #E2A002",
"b@	c #DF9A02",
"c@	c #E19B00",
"d@	c #E59D06",
"e@	c #E19702",
"f@	c #EBBA36",
"g@	c #E8BA3E",
"h@	c #EEC74E",
"i@	c #EBC752",
"j@	c #EDCA57",
"k@	c #EDCE60",
"l@	c #EDD064",
"m@	c #EBCF55",
"n@	c #ECC70A",
"o@	c #EECD31",
"p@	c #EDCB04",
"q@	c #F0CA09",
"r@	c #E4B907",
"s@	c #E8AF05",
"t@	c #E29F02",
"u@	c #DF9A03",
"v@	c #EB9F06",
"w@	c #D98F01",
"x@	c #EDC140",
"y@	c #E8C353",
"z@	c #EDD066",
"A@	c #EBCE4D",
"B@	c #EBC207",
"C@	c #EECD2F",
"D@	c #EDC907",
"E@	c #F0CB09",
"F@	c #F1CA08",
"G@	c #E4B506",
"H@	c #E5A903",
"I@	c #E19C0B",
"J@	c #EF9E00",
"K@	c #EAC146",
"L@	c #EBC654",
"M@	c #EDCC5C",
"N@	c #EDD067",
"O@	c #EBCE44",
"P@	c #EBC609",
"Q@	c #EBC108",
"R@	c #E8BA00",
"S@	c #EECF37",
"T@	c #F2C908",
"U@	c #E4B105",
"V@	c #E2A304",
"W@	c #E19A00",
"X@	c #E69D0E",
"Y@	c #DC9102",
"Z@	c #E9C14A",
"`@	c #EDC854",
" #	c #ECCE63",
".#	c #EDD069",
"+#	c #EBCE3A",
"@#	c #ECC906",
"##	c #E9BD00",
"$#	c #ECC429",
"%#	c #EBC832",
"&#	c #F0CC0B",
"*#	c #F3C907",
"=#	c #E9BA05",
"-#	c #E3A412",
";#	c #DE9400",
">#	c #E29B01",
",#	c #E19E0F",
"'#	c #EE9B00",
")#	c #EBC957",
"!#	c #EDCE67",
"~#	c #EBCE30",
"{#	c #ECC907",
"]#	c #E8BB00",
"^#	c #F4DF50",
"/#	c #EFCB00",
"(#	c #F2CE06",
"_#	c #F4CF08",
":#	c #F5CF08",
"<#	c #F6CE07",
"[#	c #F4CB08",
"}#	c #F6CB06",
"|#	c #F8CB01",
"1#	c #FFD716",
"2#	c #D58E00",
"3#	c #E09C07",
"4#	c #E99C09",
"5#	c #DD9101",
"6#	c #EBD065",
"7#	c #ECCD24",
"8#	c #EBC408",
"9#	c #E9BB06",
"0#	c #E3B409",
"a#	c #E2AF06",
"b#	c #E1AA05",
"c#	c #DFA404",
"d#	c #DE9F03",
"e#	c #DB9A03",
"f#	c #DD9901",
"g#	c #DE9A01",
"h#	c #DF9B01",
"i#	c #DB9801",
"j#	c #E19B02",
"k#	c #E09C05",
"l#	c #E79D0E",
"m#	c #E79801",
"n#	c #EFCD08",
"o#	c #EDC81A",
"p#	c #E8BB0A",
"q#	c #E6B607",
"r#	c #E6AE05",
"s#	c #E4AA04",
"t#	c #E3A603",
"u#	c #E0A103",
"v#	c #E19D02",
"w#	c #E19D09",
"x#	c #E89E10",
"y#	c #E89900",
"z#	c #EDC408",
"A#	c #EBC215",
"B#	c #E8B716",
"C#	c #E5AD01",
"D#	c #E4A603",
"E#	c #E0A003",
"F#	c #E29C02",
"G#	c #E09800",
"H#	c #E4A218",
"I#	c #E99D0E",
"J#	c #E69700",
"K#	c #E6B808",
"L#	c #EDBE08",
"M#	c #EBBA1A",
"N#	c #E7AF1A",
"O#	c #DF9C00",
"P#	c #E19C00",
"Q#	c #DF9900",
"R#	c #E09A00",
"S#	c #E09B04",
"T#	c #E5A31A",
"U#	c #E9A31A",
"V#	c #ED9A00",
"W#	c #DC9001",
"X#	c #D7A206",
"Y#	c #E6B006",
"Z#	c #ECB401",
"`#	c #EDB81B",
" $	c #EAAE17",
".$	c #E8AA18",
"+$	c #E7A71A",
"@$	c #E5A51A",
"#$	c #E7A616",
"$$	c #E9A617",
"%$	c #ECA512",
"&$	c #DC9002",
"*$	c #C67F01",
"=$	c #DC9E04",
"-$	c #DC9D04",
";$	c #E8A401",
">$	c #E09901",
",$	c #DA9202",
"'$	c #D58C02",
"                                                                ",
"                                                                ",
"                        . + @ # $ % & *                         ",
"                  = - ; > , ' ) ! ~ { ] ^ /                     ",
"                ( _ : < [ } | 1 2 3 4 5 6 7 8 9                 ",
"            0 a b c d e f g h i j k l m n o p q r               ",
"          ( s t u v e f g h w j x y z A B C D E F G             ",
"          H I J K L f g M N O P Q R S T U V W X Y Z `           ",
"        (  ...+.L f @.#.$.%.&.*.=.-.;.>.,.'.).!.~.{.].^.        ",
"      /.(._.:.L <.@.#.[.}.|.1.2.-.-.3.4.5.6.7.8.9.0.a.b.        ",
"      c.d.e.f.g.h.i.j.k.l.m.n.o.;.p.q.r.s.t.u.v.0.w.x.y.z.      ",
"      A.B.C.g.D.E.F.k.l.m.G.H.I.J.K.L.M.N.O.v.P.Q.R.S.T.U.      ",
"    V.W.X.g.Y.E.j.Z.l.`. +.+++@+#+$+%+&+O.*+P.=+-+;+>+,+'+      ",
"    )+!+~+Y.E.{+Z.]+^+/+.+(+_+:+<+[+}+|+1+P.=+-+;+2+3+4+5+6+    ",
"    7+8+Y.9+0+a+]+b+/+c+(+d+e+f+g+h+i+j+k+l+m+n+2+o+p+q+r+s+    ",
"    t+u+v+w+a+l b+x+c+(+d+V y+z+A+B+C+D+l+E+n+2+F+p+G+H+I+J+    ",
"    K+L+M+k l N+x+c+O+D P+Q+R+A+S+T+U+V+W+n+X+Y+Z+`+H+H+ @.@    ",
"    +@@@k l N+#@$@C V P+%@&@*@=@-@;@>@,@'@)@!@Z+~@H+{@]@^@/@    ",
"    (@_@:@<@[@}@|@V 1@2@3@4@5@-@6@7@8@'@9@0@a@`+H+{@b@c@d@e@    ",
"    f@g@h@i@j@|@k@l@m@&@n@o@p@6@q@r@s@9@0@t@`+H+{@b@{@u@v@w@    ",
"      x@y@j@|@k@z@A@N.8.B@C@D@E@F@G@H@0@a@H+H+{@b@{@H+I@J@      ",
"      K@L@M@k@N@O@N.P@Q@R@S@E@F@T@U@V@q+H+H+{@b@{@H+W@X@Y@      ",
"      Z@`@ #.#+#@#~.##$#%#&#F@T@*#=#-#;#>#{@b@{@H+H+,#'#        ",
"        )#!#~#{#O.]#^#/#(#_#:#<#[#}#|#1#2#b@{@H+H+3#4#5#        ",
"          6#7#8#1+9#0#a#b#c#d#e#f#g#h#i#j#{@H+H+k#l#m#          ",
"            n#o#p#q#m+r#s#t#u#v#H+H+{@b@{@H+H+w#x#y#            ",
"              z#A#B#C#s#D#E#F#{@H+{@b@{@H+G#H#I#J#              ",
"                K#L#M#N#O#P#W@H+H+Q#R#S#T#U#V#W#                ",
"                  X#Y#Z#`# $.$+$@$#$$$%$J@&$*$                  ",
"                        =$-$p+;$S >$,$'$                        ",
"                                                                ",
"                                                                "};
