/* XPM */
static char *bitcoin32_xpm[] = {
/* width height num_colors chars_per_pixel */
"    32    32      256            2",
/* colors */
"`` c #7c521c",
"`. c #d4ae1c",
"`# c #a47e1c",
"`a c #ecd67c",
"`b c #dcc25c",
"`c c #bc961c",
"`d c #8c6a34",
"`e c #f4eac4",
"`f c #f4ca6c",
"`g c #bc8634",
"`h c #dcc274",
"`i c #a46a24",
"`j c #c4aa4c",
"`k c #b48a2c",
"`l c #dcb25c",
"`m c #945a1c",
"`n c #fce684",
"`o c #b4964c",
"`p c #a47e3c",
"`q c #ecd694",
"`r c #dcce7c",
"`s c #a47a14",
"`t c #cc9e4c",
"`u c #d4b64c",
"`v c #fcf6dc",
"`w c #946224",
"`x c #dcb664",
"`y c #845e2c",
"`z c #c4a254",
"`A c #a4762c",
"`B c #f4de84",
"`C c #e4ce64",
"`D c #9c7614",
"`E c #ecead4",
"`F c #d4aa4c",
"`G c #c49644",
"`H c #b4823c",
"`I c #ecce74",
"`J c #b47e2c",
"`K c #ecc264",
"`L c #ecc674",
"`M c #ac8a44",
"`N c #a46224",
"`O c #b47a2c",
"`P c #9c6a24",
"`Q c #bc8a44",
"`R c #ac863c",
"`S c #dcca7c",
"`T c #f4de8c",
"`U c #ecbe64",
"`V c #ac762c",
"`W c #fcd67c",
"`X c #c49e1c",
"`Y c #f4d26c",
"`Z c #a4722c",
"`0 c #94622c",
"`1 c #dcbe64",
"`2 c #8c561c",
"`3 c #e4ca5c",
"`4 c #ac7e3c",
"`5 c #8c662c",
"`6 c #d4b25c",
"`7 c #b4924c",
"`8 c #f4d67c",
".` c #dcc26c",
".. c #dcba4c",
".# c #fcee8c",
".a c #bc9654",
".b c #e4ce84",
".c c #cca654",
".d c #d4b664",
".e c #f4eed4",
".f c #b48a44",
".g c #9c722c",
".h c #ac8624",
".i c #bc9624",
".j c #fcf2bc",
".k c #c49224",
".l c #e4c274",
".m c #9c5e1c",
".n c #fce694",
".o c #fcfaf4",
".p c #8c5e1c",
".q c #fcde74",
".r c #d4aa5c",
".s c #c49e54",
".t c #ecd284",
".u c #b4862c",
".v c #845a24",
".w c #a47e34",
".x c #f4ce7c",
".y c #ac6e24",
".z c #ccaa5c",
".A c #945e2c",
".B c #f4d68c",
".C c #cca25c",
".D c #9c621c",
".E c #a4763c",
".F c #9c6a34",
".G c #bc9247",
".H c #fce290",
".I c #ac763c",
".J c #e4be69",
".K c #e4c269",
".L c #d4be6c",
".M c #fceed4",
".N c #b48e54",
".O c #8c5e2c",
".P c #84521c",
".Q c #946a31",
".R c #fceabc",
".S c #f4ce71",
".T c #dcc284",
".U c #a46e29",
".V c #b4922c",
".W c #e4b65c",
".X c #945e23",
".Y c #bc9a3c",
".Z c #a48242",
".0 c #e4ce7a",
".1 c #ac7624",
".2 c #cca24f",
".3 c #e4ba6c",
".4 c #9c763a",
".5 c #c49a54",
".6 c #ecd27a",
".7 c #b48233",
".8 c #ecca6c",
"#` c #e4ca7a",
"#. c #c4a234",
"## c #bc8e38",
"#a c #bc9e5c",
"#b c #fcd274",
"#c c #ac7229",
"#d c #e4ba5c",
"#e c #e4c654",
"#f c #c49a14",
"#g c #ccae54",
"#h c #ecce6c",
"#i c #9c662c",
"#j c #c4962c",
"#k c #ac7e33",
"#l c #a47624",
"#m c #fcfaec",
"#n c #f4e6d4",
"#o c #f4e29c",
"#p c #fcde84",
"#q c #bc964c",
"#r c #cca22c",
"#s c #b48a3c",
"#t c #ac864c",
"#u c #f4d27c",
"#v c #dcbe74",
"#w c #d4a654",
"#x c #f4eee4",
"#y c #fcf2cc",
"#z c #bc9254",
"#A c #ecda84",
"#B c #bc8a3b",
"#C c #dcc677",
"#D c #dcb65b",
"#E c #fcea8c",
"#F c #dcba69",
"#G c #c4a659",
"#H c #a47a34",
"#I c #c49a49",
"#J c #ecc66c",
"#K c #a46623",
"#L c #9c6e2c",
"#M c #ac7a2f",
"#N c #94662d",
"#O c #8c5a21",
"#P c #ac823f",
"#Q c #f4da82",
"#R c #e4d286",
"#S c #d4ba68",
"#T c #b48e47",
"#U c #fcea94",
"#V c #fcfefc",
"#W c #8c6224",
"#X c #d4ae5f",
"#Y c #ccae64",
"#Z c #f4da8e",
"#0 c #9c6624",
"#1 c #e4c66c",
"#2 c #fcf2dc",
"#3 c #845621",
"#4 c #946e34",
"#5 c #fceec4",
"#6 c #e4d27c",
"#7 c #9c7a3c",
"#8 c #c49a24",
"a` c #ac8234",
"a. c #ecda94",
"a# c #946624",
"aa c #f4e284",
"ab c #b4863c",
"ac c #ecca74",
"ad c #bc8e44",
"ae c #f4e28c",
"af c #fcda7c",
"ag c #dcc66c",
"ah c #bc9a54",
"ai c #bc9a24",
"aj c #e4c674",
"ak c #a47a3c",
"al c #9c6e34",
"am c #ac7a3c",
"an c #8c622c",
"ao c #ecd26c",
"ap c #fce284",
"aq c #bc9a4c",
"ar c #ecd684",
"as c #f4eacc",
"at c #f4ca74",
"au c #a46a2c",
"av c #b48a34",
"aw c #945a24",
"ax c #fce68c",
"ay c #a47e44",
"az c #a47a1c",
"aA c #cc9e54",
"aB c #d4b654",
"aC c #fcf6e4",
"aD c #a47634",
"aE c #d4aa54",
"aF c #ecce7c",
"aG c #b47e34",
"aH c #ecc26c",
"aI c #ac8a4c",
"aJ c #b47a34",
"aK c #9c6a2c",
"aL c #ac8644",
"aM c #dcca84",
"aN c #f4d274",
"aO c #a47234",
"aP c #dcbe6c",
"aQ c #ac7e44",
"aR c #8c6634",
"aS c #d4b264",
"aT c #f4d684",
"aU c #dcba54",
"aV c #d4b66c",
"aW c #f4eedc",
"aX c #b48a4c",
"aY c #9c7234",
"aZ c #fce69c",
"a0 c #fcfafc",
"a1 c #8c5e24",
"a2 c #fcde7c",
"a3 c #d4aa64",
"a4 c #c49e5c",
"a5 c #ecd28c",
"a6 c #b48634",
"a7 c #ccaa64",
"a8 c #9c6224",
/* pixels */
"#V#V#V#V#V#V#V#V#V#VaC#Z.J`F#I##`J.h.7#I.T#x#V#V#V#V#V#V#V#V#V#V",
"#V#V#V#V#V#V#V#V#y`8aH.d.c#qaL`pak.UaKa8`m.y.2as#V#V#V#V#V#V#V#V",
"#V#V#V#V#V#V#V.H.6.K.K#X.sadaLakaY.Qan`0.m`w.D#c#D#V#V#V#V#V#V#V",
"#V#V#V#V#V#y`B#Q.6aj#F#X#a#Tay.Z.4#N.F.O#0a8.X#0.U#j#2#V#V#V#V#V",
"#V#V#V#V.j`8#6`a`8`haSa7a4.a.f#P.Eal#N#O.Aa1#0.yaO`V.kas#V#V#V#V",
"#V#V#V.jaT#Q#R#C#`.l#F#Y`z.aaX#P.Eal#i.X.Xa1a8aK#0`Z`J#jaC#V#V#V",
"#V#VaC#u.t#Q`B#C#``8#v.z.Caq.aaX`Z.g#N`w.X.X.X`w.U`O#P.7#r#V#V#V",
"#Va0`WaF#``SaMar#Q`h#S#F`l#w.s.f`Z`V.Uau#N#0.X`w`P`A`A#M#B.K#V#V",
"#V.Rac#Q#Q#Car`B#C#Cac`K#D`tad#BaOamam.E.U.U#0a8`PaK#M`ga6.iaC#V",
"#Vat.laF#R.0.#`T`S#paj`x#d`t.Gab`H`4.U#K`N#K#0#0.y.U#H#s#Pa6aU#V",
".MaH#Jaj`h`B#E#R#Q#u.S`6`xa3a4#B#M#cau.X#O#K`i`w.1`V`Z#k#H#B.i#V",
".BaH#u.6#`axar#Aap.6aN.J.J#w`G`Q#MaO.v`m#i#0#K#O#c`O`A#k#B##ava.",
"`f.3ac`h`aax`Bax.H#ZaN#J#D#w.faY`Z`Z#iamaO`N`waD`V`J#k#Ha``4a6aB",
"`U#F.l.l`Bax.H#o.Ha2aN`K#D#T`p`4`4.U.Uau#0.D`i#c`i`V`g#k#H#Hav#.",
"`Uac.x#F`Bax`T`n#EafaP`K`l.G.C#zaG`Z#K#0`2.P.D.y`Z`Z`g.7a`#B#B#8",
".JaH#F#S.H#Eaa#Q`S.L#FaP.W.r`G#saGaKau`m#OaOaO.U#c`P.7a6`4`R#k`X",
"`U#F#v#S#pap#U#`#6#ZaT#J#D.c`G.E#N`w`P#0.F#c`i#c`P#L`ga6.w#H#P#8",
".J`f#u.l`B`naxax.n#Q`8.8`laEaLaY`4aQ.U#Ka8#K#K`wa#`O`ga`#P#B#Bai",
"`U.Jac#v#Q#E#U#p`aa2aN#Xaq.2.GadaLaO#ia8.D.X#3.D.1`O.7#k#P`R#s#.",
".8#F.JaFajae#Eax`8af.S#g#X.c`Gab#c.Ua8`w.m#O#0#c`Z#M.7#H#k#Hav`1",
".B`f#uaT`h`a#Uax`B.6.S.K`x#w`GabaYa1a1.X.D.D.D.U#L`Oa``pa6#B`k#o",
"aWaH`Laj#C`Sap#E#pac.8aH#DaA.Gab`5aK.U#0`m#O#OaK`Z`Jak#H#kab`c#V",
"#V.8.l#1`8.0#6aT`BaN.8.J`zaL`R`gaO`P.Ua8#3#O#0#i.1#MaD#H#Ha6#e#V",
"#Vas#baT#Q#C#C#`#`#Q.d#G.c.2ad#P`Z#W`Pa8.Xa##Na#`VaY`p#k#B.i#m#V",
"#V#V.6aN#C.0.6`S#1#1`1`6`l.2.G#H#NaK#ia1a1.O.X.Ual`Z.g#ka6`C#V#V",
"#V#V.o`Y`a#p#Q#C`h.`#F.z.s`7.f.4aY#4`0#O#O`maK.Q#L`A#M#k`.#V#V#V",
"#V#V#V.M#Q`B.0#`.6.L.d.c.s`M.ZakaYananan#Oan`0a##N`Zab`X#m#V#V#V",
"#V#V#V#V`eao`8`a#QajaS#G`o`7`p.4#4#Nan`y.v`0a1#0#L#M#f`v#V#V#V#V",
"#V#V#V#V#Vas`3ax.6#S`1.zahaIayaY.Qan`y.P`2.v#3.U#l`X#m#V#V#V#V#V",
"#V#V#V#V#V#Va0ag.8.8#J#G`7aL.4`daR.v````#O.X`w`s`b#V#V#V#V#V#V#V",
"#V#V#V#V#V#V#V#VaW`1..`l.c.G.Z`d.Qa1.O#Oa1`D`u#m#V#V#V#V#V#V#V#V",
"#V#V#V#V#V#V#V#V#V#Va0#R`j.Y.V.h`#`s.h`ja.#V#V#V#V#V#V#V#V#V#V#V"
};
