/* XPM */
static char *bitcoin16_xpm[] = {
/* width height num_colors chars_per_pixel */
"    16    16      256            2",
/* colors */
"`` c #ffffff",
"`. c #fefbee",
"`# c #f7e3ab",
"`a c #e0bc64",
"`b c #c2984b",
"`c c #a9803a",
"`d c #a2732d",
"`e c #9e6a26",
"`f c #b7883e",
"`g c #e4cfaa",
"`h c #fefefe",
"`i c #fcf4d4",
"`j c #f3db83",
"`k c #e4c46e",
"`l c #ceab5f",
"`m c #b5914f",
"`n c #a47c3e",
"`o c #986c33",
"`p c #926129",
"`q c #945d21",
"`r c #a16826",
"`s c #cba142",
"`t c #fbf9f6",
"`u c #fcf0cd",
"`v c #efd881",
"`w c #e3cc7b",
"`x c #e3c776",
"`y c #cead62",
"`z c #bd9852",
"`A c #ac8242",
"`B c #9c6d2f",
"`C c #915f24",
"`D c #905d22",
"`E c #9b6526",
"`F c #a8752c",
"`G c #c89e2f",
"`H c #fcfbf9",
"`I c #fdf6e6",
"`J c #f2d379",
"`K c #e3ce7e",
"`L c #e7d281",
"`M c #e4c977",
"`N c #deb864",
"`O c #cda353",
"`P c #b48742",
"`Q c #a57330",
"`R c #a06c2e",
"`S c #9a6527",
"`T c #966221",
"`U c #a3712c",
"`V c #b18033",
"`W c #d7b44b",
"`X c #f5db9e",
"`Y c #e8ca77",
"`Z c #ebd683",
"`0 c #f0dc87",
"`1 c #ead07c",
"`2 c #e6c067",
"`3 c #d1a555",
"`4 c #b98a40",
"`5 c #ab7836",
"`6 c #a06727",
"`7 c #a06522",
"`8 c #9f6722",
".` c #a37029",
".. c #b08135",
".# c #bc8f2f",
".a c #f2eace",
".b c #ecc46f",
".c c #e5c776",
".d c #f2da83",
".e c #f5de89",
".f c #f5d97f",
".g c #e9c46a",
".h c #d2a85a",
".i c #b3833b",
".j c #a26e2a",
".k c #966227",
".l c #9e6425",
".m c #9f6826",
".n c #ad782b",
".o c #a97c31",
".p c #b48739",
".q c #cfb352",
".r c #e7bf69",
".s c #e5c876",
".t c #f9e288",
".u c #fae490",
".v c #f8dc82",
".w c #eac366",
".x c #c49c4e",
".y c #ad813f",
".z c #a6712f",
".A c #a16928",
".B c #996122",
".C c #a36c28",
".D c #af792c",
".E c #ad7f32",
".F c #af8337",
".G c #c49d2e",
".H c #e6be68",
".I c #e7c975",
".J c #fbe489",
".K c #f0db86",
".L c #e6cc79",
".M c #e3bf69",
".N c #d2a957",
".O c #b58842",
".P c #9f6c2a",
".Q c #976022",
".R c #9b652a",
".S c #a66c26",
".T c #a77429",
".U c #b28335",
".V c #ad8239",
".W c #c69c24",
".X c #e8c069",
".Y c #e7c976",
".Z c #fde589",
".0 c #f5df8b",
".1 c #f5da84",
".2 c #e6c26b",
".3 c #cba14e",
".4 c #aa7f3c",
".5 c #a37235",
".6 c #9f6625",
".7 c #9e6524",
".8 c #9a6522",
"#` c #ab772a",
"#. c #b18337",
"## c #af8339",
"#a c #c49b22",
"#b c #e6c875",
"#c c #f3dd85",
"#d c #fde78c",
"#e c #f6d87a",
"#f c #deba64",
"#g c #cca353",
"#h c #b78840",
"#i c #9f6c2c",
"#j c #976021",
"#k c #945c1d",
"#l c #9e6825",
"#m c #af7a2e",
"#n c #ab7f36",
"#o c #ae8337",
"#p c #c7a52b",
"#q c #ecc96c",
"#r c #e8ca76",
"#s c #e6cf7c",
"#t c #fae38a",
"#u c #f3d478",
"#v c #e7c167",
"#w c #c89f4f",
"#x c #b08238",
"#y c #996828",
"#z c #986122",
"#A c #915c1e",
"#B c #9c6926",
"#C c #ab792f",
"#D c #a97c36",
"#E c #b38732",
"#F c #e3c95d",
"#G c #f4e5ba",
"#H c #f1d27a",
"#I c #e4cd7b",
"#J c #e3cb79",
"#K c #eacc74",
"#L c #d4b25f",
"#M c #c49c4c",
"#N c #ab7f37",
"#O c #996a28",
"#P c #915e25",
"#Q c #9c6a29",
"#R c #a37632",
"#S c #ab7e35",
"#T c #c89e1d",
"#U c #fcf7df",
"#V c #fefdfc",
"#W c #efd26a",
"#X c #f2da81",
"#Y c #e3cc79",
"#Z c #dbc06e",
"#0 c #d0ae5e",
"#1 c #bf984d",
"#2 c #a27938",
"#3 c #94692d",
"#4 c #8d5e29",
"#5 c #8e5e27",
"#6 c #97682a",
"#7 c #a4752f",
"#8 c #b78b28",
"a` c #ebd055",
"a. c #fefcf9",
"a# c #e4c756",
"aa c #f2d980",
"ab c #e7ca74",
"ac c #c7a75a",
"ad c #ae8c4a",
"ae c #9f783c",
"af c #8f6732",
"ag c #855a28",
"ah c #8e5e25",
"ai c #986724",
"aj c #ab8022",
"ak c #e2be26",
"al c #fefefd",
"am c #dfc85f",
"an c #debe57",
"ao c #d4b05e",
"ap c #af8b47",
"aq c #957037",
"ar c #885f28",
"as c #86571f",
"at c #90611b",
"au c #b18812",
"av c #e7cc54",
"aw c #f5eed1",
"ax c #d5bb5a",
"ay c #c4a234",
"az c #b58d1f",
"aA c #ad8416",
"aB c #b49020",
"aC c #ddc259",
"aD c #000000",
"aE c #000000",
"aF c #000000",
"aG c #000000",
"aH c #000000",
"aI c #000000",
"aJ c #000000",
"aK c #000000",
"aL c #000000",
"aM c #000000",
"aN c #000000",
"aO c #000000",
"aP c #000000",
"aQ c #000000",
"aR c #000000",
"aS c #000000",
"aT c #000000",
"aU c #000000",
"aV c #000000",
"aW c #000000",
"aX c #000000",
"aY c #000000",
"aZ c #000000",
"a0 c #000000",
"a1 c #000000",
"a2 c #000000",
"a3 c #000000",
"a4 c #000000",
"a5 c #000000",
"a6 c #000000",
"a7 c #000000",
"a8 c #000000",
/* pixels */
"```````.`#`a`b`c`d`e`f`g`h``````",
"`````i`j`k`l`m`n`o`p`q`r`s`t````",
"```u`v`w`x`y`z`A`B`C`D`E`F`G`H``",
"`I`J`K`L`M`N`O`P`Q`R`S`T`U`V`W``",
"`X`Y`Z`0`1`2`3`4`5`6`7`8.`...#.a",
".b.c.d.e.f.g.h.i.j.k.l.m.n.o.p.q",
".r.s.t.u.v.w.x.y.z.A.B.C.D.E.F.G",
".H.I.J.K.L.M.N.O.P.Q.R.S.T.U.V.W",
".X.Y.Z.0.1.2.3.4.5.6.7.8#`#.###a",
".X#b#c#d#e#f#g#h#i#j#k#l#m#n#o#p",
"#q#r#s#t#u#v#w#x#y#z#A#B#C#D#E#F",
"#G#H#I#J#K#L#M#N#O.Q#P#Q#R#S#T#U",
"#V#W#X#Y#Z#0#1#2#3#4#5#6#7#8a```",
"``a.a#aaabacadaeafagahaiajak````",
"````alamanaoapaqarasatauav``````",
"````````awaxayazaAaBaC#U````````"
};
