/* XPM */
static char * E:\workspace\github\bitgold\share\pixmaps\bitcoin16_xpm[] = {
"16 16 148 2",
"  	c None",
". 	c #EFA806",
"+ 	c #E1A41A",
"@ 	c #E6AC25",
"# 	c #E6B02F",
"$ 	c #E3B339",
"% 	c #F1C848",
"& 	c #E5A212",
"* 	c #E4AB27",
"= 	c #F1BA2D",
"- 	c #EDBB36",
"; 	c #EEC03F",
"> 	c #EFC548",
", 	c #E4BB4D",
"' 	c #E7C55B",
") 	c #E4A41A",
"! 	c #EEB324",
"~ 	c #EEB72E",
"{ 	c #EEBD3D",
"] 	c #EEC043",
"^ 	c #ECBB3A",
"/ 	c #E5AA1F",
"( 	c #EFD061",
"_ 	c #ECCF68",
": 	c #E6C210",
"< 	c #E7A30F",
"[ 	c #EEB326",
"} 	c #EDBA37",
"| 	c #EBB939",
"1 	c #E9AA13",
"2 	c #E8A300",
"3 	c #E5AB1A",
"4 	c #EDD168",
"5 	c #EDCB16",
"6 	c #E9C109",
"7 	c #E6B80D",
"8 	c #EBA504",
"9 	c #E8AE26",
"0 	c #EEB830",
"a 	c #EDBB39",
"b 	c #EDC041",
"c 	c #EDC34A",
"d 	c #ECBC3E",
"e 	c #EAAA0D",
"f 	c #E6BB3D",
"g 	c #EDCC11",
"h 	c #EAC109",
"i 	c #E7B907",
"j 	c #E3AE0A",
"k 	c #EBB404",
"l 	c #E6A612",
"m 	c #F0BB32",
"n 	c #EDC042",
"o 	c #EDC44B",
"p 	c #ECC853",
"q 	c #ECBE40",
"r 	c #EBBD39",
"s 	c #E7C123",
"t 	c #E9C009",
"u 	c #E8B807",
"v 	c #E6AF05",
"w 	c #E2A503",
"x 	c #E6AA07",
"y 	c #EAAE21",
"z 	c #EDBC3A",
"A 	c #EDC143",
"B 	c #EDC54C",
"C 	c #EDC954",
"D 	c #EDCD5D",
"E 	c #EBC451",
"F 	c #EECF53",
"G 	c #E5BB08",
"H 	c #E7B607",
"I 	c #E6AE05",
"J 	c #E3A504",
"K 	c #E29D01",
"L 	c #E4A003",
"M 	c #EAB42C",
"N 	c #EDC144",
"O 	c #EDC54D",
"P 	c #EDC955",
"Q 	c #EDCD5F",
"R 	c #EBCE46",
"S 	c #EED264",
"T 	c #F1D108",
"U 	c #E0AD06",
"V 	c #E5AE04",
"W 	c #E19A01",
"X 	c #E29D03",
"Y 	c #E9B836",
"Z 	c #EDC74E",
"` 	c #EDCA56",
" .	c #EDCE61",
"..	c #ECCF4C",
"+.	c #EECC1F",
"@.	c #EDCA01",
"#.	c #EAC409",
"$.	c #E7AD04",
"%.	c #E2A303",
"&.	c #E19C01",
"*.	c #E09A01",
"=.	c #DF9A01",
"-.	c #E59A05",
";.	c #EDC140",
">.	c #EBC857",
",.	c #EDCE63",
"'.	c #ECCE42",
").	c #ECC603",
"!.	c #EBC51D",
"~.	c #F0CA06",
"{.	c #EBBF07",
"].	c #E2A302",
"^.	c #E29C07",
"/.	c #E09300",
"(.	c #EDCB5F",
"_.	c #ECCE36",
":.	c #EAC200",
"<.	c #EFCD23",
"[.	c #F2CF14",
"}.	c #F5CF08",
"|.	c #F3CA07",
"1.	c #F1BB0C",
"2.	c #DC9400",
"3.	c #E09B02",
"4.	c #E79A07",
"5.	c #EECB12",
"6.	c #E8BA07",
"7.	c #E4AF05",
"8.	c #E1A504",
"9.	c #DD9B03",
"0.	c #DE9700",
"a.	c #DC9601",
"b.	c #E29B01",
"c.	c #E79D0A",
"d.	c #EABD10",
"e.	c #E7B010",
"f.	c #E09D00",
"g.	c #E19900",
"h.	c #E09A00",
"i.	c #DF9900",
"j.	c #E49F10",
"k.	c #E79B0A",
"l.	c #E2AA00",
"m.	c #E5AA11",
"n.	c #E7A70E",
"o.	c #E6A20D",
"p.	c #E29C0D",
"q.	c #DE8F00",
"                                ",
"          . + @ # $ %           ",
"        & * = - ; > , '         ",
"      ) ! ~ { ] ^ / ( _ :       ",
"    < [ ~ } | 1 2 3 4 5 6 7     ",
"  8 9 0 a b c d e f g h i j k   ",
"  l m a n o p q r s t u v w x   ",
"  y z A B C D E F G H I J K L   ",
"  M N O P Q R S T U V w K W X   ",
"  Y Z `  ...+.@.#.$.%.&.*.=.-.  ",
"  ;.>.,.'.).!.~.{.].&.W W ^./.  ",
"    (._.:.<.[.}.|.1.2.W 3.4.    ",
"      5.6.7.8.9.0.a.b.3.c.      ",
"        d.e.f.g.h.i.j.k.        ",
"          l.m.n.o.p.q.          ",
"                                "};
