/* XPM */
static char * D:\workspace\github\bitbaba\bitgold\share\pixmaps\bitcoin32_xpm[] = {
"32 32 107 2",
"  	c None",
". 	c #EFC700",
"+ 	c #EEC600",
"@ 	c #F3CB00",
"# 	c #F5CD00",
"$ 	c #F6CF00",
"% 	c #FCD400",
"& 	c #FFD800",
"* 	c #FFD700",
"= 	c #FBD300",
"- 	c #F0C800",
"; 	c #FED600",
"> 	c #E1BF04",
", 	c #D6B506",
"' 	c #FFD900",
") 	c #786714",
"! 	c #786814",
"~ 	c #FCD801",
"{ 	c #161422",
"] 	c #181521",
"^ 	c #FFDE00",
"/ 	c #8E7B10",
"( 	c #231F20",
"_ 	c #221E20",
": 	c #A28B0E",
"< 	c #FFE100",
"[ 	c #201C21",
"} 	c #1E1B21",
"| 	c #38301D",
"1 	c #FFE400",
"2 	c #A68D0D",
"3 	c #322C1D",
"4 	c #867312",
"5 	c #241F20",
"6 	c #191721",
"7 	c #D1B206",
"8 	c #2F291E",
"9 	c #A48D0D",
"0 	c #E3C004",
"a 	c #151322",
"b 	c #242020",
"c 	c #685916",
"d 	c #FFDB00",
"e 	c #BDA309",
"f 	c #1B1821",
"g 	c #FFE200",
"h 	c #FFE000",
"i 	c #493F1B",
"j 	c #141222",
"k 	c #FDD700",
"l 	c #493E1A",
"m 	c #8D7B10",
"n 	c #FFD600",
"o 	c #B1980C",
"p 	c #201C20",
"q 	c #907D10",
"r 	c #D9B906",
"s 	c #0A0A23",
"t 	c #FFDA00",
"u 	c #FFE300",
"v 	c #201D20",
"w 	c #2A251F",
"x 	c #FFE500",
"y 	c #FFDC00",
"z 	c #645617",
"A 	c #7A6913",
"B 	c #857412",
"C 	c #BCA20A",
"D 	c #F3CD02",
"E 	c #040525",
"F 	c #F1CC02",
"G 	c #F4CE01",
"H 	c #131122",
"I 	c #594C18",
"J 	c #FFDD00",
"K 	c #7B6B13",
"L 	c #645516",
"M 	c #5A4E18",
"N 	c #F0CB02",
"O 	c #0C0B23",
"P 	c #C2A709",
"Q 	c #1D1A21",
"R 	c #837312",
"S 	c #937E10",
"T 	c #4A3F1A",
"U 	c #2B261F",
"V 	c #BDA20A",
"W 	c #96810F",
"X 	c #AE960C",
"Y 	c #AC920C",
"Z 	c #312A1E",
"` 	c #FCD800",
" .	c #463C1B",
"..	c #332D1E",
"+.	c #A9910C",
"@.	c #705F15",
"#.	c #E0BF04",
"$.	c #C4A809",
"%.	c #776514",
"&.	c #736214",
"*.	c #736114",
"=.	c #5A4D18",
"-.	c #766514",
";.	c #AB910C",
">.	c #897411",
",.	c #847012",
"'.	c #FFDF00",
"                        . . . . . . . .                         ",
"                  . . + . @ # $ $ # @ . + . .                   ",
"              . . + # % & * * * * * * & % # + . .               ",
"            . + # * * * * * * * * * * * * * * # + .             ",
"          . . = * * * * * * * * * & * * * * * * = . .           ",
"        . - ; * * * * * * * * * > , * * * * * * * ; - .         ",
"      . . ; * * * * * * * * * ' ) ! ' * * * * * * * ; . .       ",
"    . + = * * * * * * * * * * ~ { ] ^ * * * * * * * * = + .     ",
"    . # * * * * * * * * * * * / ( _ : * * * * * * * * * # .     ",
"  . + * * * * * * * * * * * < [ } ( | 1 * * * * * * * * * + .   ",
"  . # * * * * * * * * * * * 2 3 4 5 6 7 * * * * * * * * * # .   ",
"  + % * * * * * * * * * * 1 8 9 0 a b c d * * * * * * * * % +   ",
". . & * * * * * * * * * * e f g h i ( j k * * * * * * * * & . . ",
". @ * * * * * * * * * * < l m * n o p ( q * * * * * * * * * @ . ",
". # * * * * * * * * * * r s t * * u v ( w x * * * * * * * * # . ",
". $ * * * * * * * * * y z A & * * & B ( } C * * * * * * * * $ . ",
". $ * * * * * * * * * D E F * * * * G H ( I J * * * * * * * $ . ",
". # * * * * * * * * & K L d * * * * J M ( H N * * * * * * * # . ",
". @ * * * * * * * * t O r * * * * * * P Q ( R & * * * * * * @ . ",
". . & * * * * * * * S T < * * * * * * 1 U ( } g * * * * * & . . ",
"  + % * * * * * * g Q V * * * * * * * * W _ p X n * * * * % +   ",
"  . # * * * * * n Y Z 1 * * * * * * * * ` j (  .< * * * * # .   ",
"  . + * * * * * 1 ..+.' t t t t t t t t y @.( { #.* * * * + .   ",
"    . # * * * n $.a %.&.&.&.&.&.&.&.&.&.*.=._ b -.' * * # .     ",
"    . + = * * ' ;.>.>.>.>.>.>.>.>.>.>.>.>.>.>.>.,.'.* = + .     ",
"      . . ; * * * * * * * * * * * * * * * * * * * * ; . .       ",
"        . - ; * * * * * * * * * * * * * * * * * * ; - .         ",
"          . . = * * * * * * * * * * * * * * * * = . .           ",
"            . + # * * * * * * * * * * * * * * # + .             ",
"              . . + # % & * * * * * * & % # + . .               ",
"                  . . + . @ # $ $ # @ . + . .                   ",
"                        . . . . . . . .                         "};
