/* XPM */
static char * D:\workspace\github\bitbaba\bitgold\share\pixmaps\bitcoin64_xpm[] = {
"64 64 167 2",
"  	c None",
". 	c #EFC700",
"+ 	c #EEC600",
"@ 	c #F2CA00",
"# 	c #F6CE00",
"$ 	c #F9D100",
"% 	c #FBD300",
"& 	c #FDD500",
"* 	c #FED700",
"= 	c #FFD700",
"- 	c #F4CC00",
"; 	c #FFD800",
"> 	c #F0C800",
", 	c #F8D000",
"' 	c #FCD400",
") 	c #F3CB00",
"! 	c #F5CD00",
"~ 	c #F0CB02",
"{ 	c #DBB905",
"] 	c #887511",
"^ 	c #7E6B13",
"/ 	c #FFD900",
"( 	c #242020",
"_ 	c #221E20",
": 	c #FFDB00",
"< 	c #A68D0D",
"[ 	c #201C20",
"} 	c #201D20",
"| 	c #A78E0D",
"1 	c #FFE000",
"2 	c #332D1E",
"3 	c #231F20",
"4 	c #41381B",
"5 	c #FFDF00",
"6 	c #B59B0B",
"7 	c #1F1B21",
"8 	c #1A1721",
"9 	c #D7B506",
"0 	c #FFDE00",
"a 	c #4A401A",
"b 	c #6E5E15",
"c 	c #D7B606",
"d 	c #1C1921",
"e 	c #F9D301",
"f 	c #FFDD00",
"g 	c #5D5018",
"h 	c #98810F",
"i 	c #E6C304",
"j 	c #1A1821",
"k 	c #342D1D",
"l 	c #7A6813",
"m 	c #26221F",
"n 	c #B2970B",
"o 	c #1F1C21",
"p 	c #1C1A21",
"q 	c #C6A808",
"r 	c #FBD400",
"s 	c #211E20",
"t 	c #947D0F",
"u 	c #5F5117",
"v 	c #FFDC00",
"w 	c #8D7910",
"x 	c #1E1B21",
"y 	c #F8D201",
"z 	c #796813",
"A 	c #181622",
"B 	c #EFCA02",
"C 	c #28231F",
"D 	c #756614",
"E 	c #FFDA00",
"F 	c #E8C303",
"G 	c #181621",
"H 	c #877411",
"I 	c #A9900C",
"J 	c #EEC902",
"K 	c #534719",
"L 	c #2B261F",
"M 	c #39311D",
"N 	c #635517",
"O 	c #1E1A21",
"P 	c #B99C0A",
"Q 	c #BFA109",
"R 	c #D3B406",
"S 	c #29231F",
"T 	c #49401A",
"U 	c #4D421A",
"V 	c #4C411A",
"W 	c #8F7911",
"X 	c #1B1821",
"Y 	c #DFBD05",
"Z 	c #D8B706",
"` 	c #1D1A21",
" .	c #C2A409",
"..	c #F1CC02",
"+.	c #665716",
"@.	c #37301D",
"#.	c #5F5217",
"$.	c #EDC803",
"%.	c #C9A908",
"&.	c #1B1921",
"*.	c #211D20",
"=.	c #A18A0E",
"-.	c #7C6A13",
";.	c #29241F",
">.	c #38301D",
",.	c #40371B",
"'.	c #201D21",
").	c #927C10",
"!.	c #9C860E",
"~.	c #D6B506",
"{.	c #957F0F",
"].	c #FCD401",
"^.	c #FCD500",
"/.	c #6B5C16",
"(.	c #7B6813",
"_.	c #6F5F15",
":.	c #F5D002",
"<.	c #AE930C",
"[.	c #EBC803",
"}.	c #D6B706",
"|.	c #96800F",
"1.	c #3E351C",
"2.	c #453C1B",
"3.	c #C1A509",
"4.	c #AD930C",
"5.	c #C2A609",
"6.	c #51461A",
"7.	c #4B411A",
"8.	c #584C18",
"9.	c #DFBC05",
"0.	c #C4A508",
"a.	c #7E6D13",
"b.	c #1A1722",
"c.	c #ECC803",
"d.	c #6A5B16",
"e.	c #3A321C",
"f.	c #EAC603",
"g.	c #897511",
"h.	c #EEC903",
"i.	c #564919",
"j.	c #272220",
"k.	c #847012",
"l.	c #B79C0A",
"m.	c #B1960B",
"n.	c #97800F",
"o.	c #958110",
"p.	c #FAD300",
"q.	c #947E0F",
"r.	c #191722",
"s.	c #DFBE04",
"t.	c #2E281E",
"u.	c #776814",
"v.	c #F2CC02",
"w.	c #786714",
"x.	c #B4990B",
"y.	c #CFAF07",
"z.	c #D0AF07",
"A.	c #D5B406",
"B.	c #FFE100",
"C.	c #41371C",
"D.	c #C0A309",
"E.	c #131122",
"F.	c #332C1E",
"G.	c #FAD301",
"H.	c #F9D201",
"I.	c #F8D101",
"J.	c #FED600",
"                                                    . . . . . . . . . . . .                                                     ",
"                                            . . . . . . . . . . . . . . . . . . . .                                             ",
"                                        . . . . . . . . . + + + + + + . . . . . . . . .                                         ",
"                                  . . . . . . . . @ # $ % & * = = * & % $ # @ . . . . . . . .                                   ",
"                                . . . . . . - % = ; = = = = = = = = = = = = ; = % - . . . . . .                                 ",
"                            . . . . . > , = = = = = = = = = = = = = = = = = = = = = = , > . . . . .                             ",
"                          . . . . > $ ; = = = = = = = = = = = = = = = = = = = = = = = = ; $ > . . . .                           ",
"                      . . . . + # = = = = = = = = = = = = = = = = = = = = = = = = = = = = = = # + . . . .                       ",
"                    . . . . > ' = = = = = = = = = = = = = = = = = = = = = = = = = = = = = = = = ' > . . . .                     ",
"                  . . . . ) = = = = = = = = = = = = = = = = = = = = ; = = = = = = = = = = = = = = = ) . . . .                   ",
"                . . . . ! ; = = = = = = = = = = = = = = = = = = = ~ { = = = = = = = = = = = = = = = ; ! . . . .                 ",
"              . . . . # ; = = = = = = = = = = = = = = = = = = = ; ] ^ / = = = = = = = = = = = = = = = ; # . . . .               ",
"              . . . ! ; = = = = = = = = = = = = = = = = = = = = / ( _ : = = = = = = = = = = = = = = = = ; ! . . .               ",
"            . . . ) ; = = = = = = = = = = = = = = = = = = = = = < [ } | = = = = = = = = = = = = = = = = = ; ) . . .             ",
"          . . . > = = = = = = = = = = = = = = = = = = = = = = 1 2 3 3 4 5 = = = = = = = = = = = = = = = = = = > . . .           ",
"          . . + ' = = = = = = = = = = = = = = = = = = = = = = 6 7 3 3 8 9 = = = = = = = = = = = = = = = = = = ' + . .           ",
"        . . . # = = = = = = = = = = = = = = = = = = = = = = 0 a 3 3 3 3 b : = = = = = = = = = = = = = = = = = = # . . .         ",
"      . . . > = = = = = = = = = = = = = = = = = = = = = = = c 8 3 3 3 3 d e = = = = = = = = = = = = = = = = = = = > . . .       ",
"      . . . $ = = = = = = = = = = = = = = = = = = = = = = f g 3 3 3 3 3 _ h ; = = = = = = = = = = = = = = = = = = $ . . .       ",
"      . . > ; = = = = = = = = = = = = = = = = = = = = = = i j 3 3 3 3 3 3 k 1 = = = = = = = = = = = = = = = = = = ; > . .       ",
"    . . . , = = = = = = = = = = = = = = = = = = = = = = / l 3 m n o 3 3 3 p q = = = = = = = = = = = = = = = = = = = , . . .     ",
"    . . . = = = = = = = = = = = = = = = = = = = = = = = r d s t / _ 3 3 3 3 u v = = = = = = = = = = = = = = = = = = = . . .     ",
"  . . . - = = = = = = = = = = = = = = = = = = = = = = ; w _ x y / z 3 3 3 3 A B = = = = = = = = = = = = = = = = = = = - . . .   ",
"  . . . % = = = = = = = = = = = = = = = = = = = = = = : C 3 D E = F G 3 3 3 _ H / = = = = = = = = = = = = = = = = = = % . . .   ",
"  . . . = = = = = = = = = = = = = = = = = = = = = = = I [ 8 J = = f K 3 3 3 3 L f = = = = = = = = = = = = = = = = = = = . . .   ",
"  . . @ ; = = = = = = = = = = = = = = = = = = = = = 5 M 3 N v = = = 6 x 3 3 3 O P = = = = = = = = = = = = = = = = = = ; @ . .   ",
". . . # = = = = = = = = = = = = = = = = = = = = = = Q d 8 R = = = = 5 S 3 3 3 3 T 5 = = = = = = = = = = = = = = = = = = # . . . ",
". . . $ = = = = = = = = = = = = = = = = = = = = = 5 U 3 V 5 = = = = ; W _ 3 3 3 X Y = = = = = = = = = = = = = = = = = = $ . . . ",
". . . % = = = = = = = = = = = = = = = = = = = = = Z 8 `  .= = = = = = ..X 3 3 3 3 ^ / = = = = = = = = = = = = = = = = = % . . . ",
". . + & = = = = = = = = = = = = = = = = = = = = : +.3 @.5 = = = = = = f #.3 3 3 3 [ E = = = = = = = = = = = = = = = = = & + . . ",
". . + * = = = = = = = = = = = = = = = = = = = = $.A [ | = = = = = = = = %.&.3 3 3 *.=.= = = = = = = = = = = = = = = = = * + . . ",
". . + = = = = = = = = = = = = = = = = = = = = E -.3 ;.v = = = = = = = = 5 >.3 3 3 3 ,.5 = = = = = = = = = = = = = = = = = + . . ",
". . + = = = = = = = = = = = = = = = = = = = = & '._ ).; = = = = = = = = = !.*.3 3 3 8 ~.= = = = = = = = = = = = = = = = = + . . ",
". . + * = = = = = = = = = = = = = = = = = = ; {._ ` ].= = = = = = = = = = ^.` 3 3 3 3 /.: = = = = = = = = = = = = = = = * + . . ",
". . + & = = = = = = = = = = = = = = = = = = f ;.3 (./ = = = = = = = = = = E _.3 3 3 3 X :.= = = = = = = = = = = = = = = & + . . ",
". . . % = = = = = = = = = = = = = = = = = = <.o 8 [.= = = = = = = = = = = = }.j 3 3 3 s |.; = = = = = = = = = = = = = = % . . . ",
". . . $ = = = = = = = = = = = = = = = = = 1 1.3 +.v = = = = = = = = = = = = 1 2.3 3 3 3 k 1 = = = = = = = = = = = = = = $ . . . ",
". . . # = = = = = = = = = = = = = = = = = 3.d 8 c = = = = = = = = = = = = = = 4.o 3 3 3 p 5.= = = = = = = = = = = = = = # . . . ",
"  . . @ ; = = = = = = = = = = = = = = = 0 6.3 7.5 = = = = = = = = = = = = = = E 3 3 3 3 3 8.f = = = = = = = = = = = = ; @ . .   ",
"  . . . = = = = = = = = = = = = = = = = 9.8 d 0.= = = = = = = = = = = = = = = / a.3 3 3 3 b.c.= = = = = = = = = = = = = . . .   ",
"  . . . % = = = = = = = = = = = = = = : d.3 e.0 = = = = = = = = = = = = = = = = f.A 3 3 3 _ g.; = = = = = = = = = = = % . . .   ",
"  . . . - = = = = = = = = = = = = = = h.8 } | = = = = = = = = = = = = = = = = = f i.3 3 3 3 j.f = = = = = = = = = = = - . . .   ",
"    . . . = = = = = = = = = = = = = / k._ C f = = = = = = = = = = = = = = = = = = l.7 3 3 3 7 m.= = = = = = = = = = = . . .     ",
"    . . . , = = = = = = = = = = = = / *.s n.; = = = = = = = = = = = = = = = = = = 1 L 3 3 3 3 V 5 = = = = = = = = = , . . .     ",
"      . . > ; = = = = = = = = = = ; o._ [ p.= = = = = = = = = = = = = = = = = = = ; q._ 3 3 3 r.s.= = = = = = = = ; > . .       ",
"      . . . $ = = = = = = = = = = f t.3 u.E = = = = = = = = = = = = = = = = = = = = v.d 3 3 3 3 w.E = = = = = = = $ . . .       ",
"      . . . > = = = = = = = = = = x.x j Q y.z.z.z.z.z.z.z.z.z.z.z.z.z.z.z.z.z.z.z.z.A.U 3 3 3 3 7 ; = = = = = = = > . . .       ",
"        . . . # = = = = = = = = B.C.3 3 &.d d d d d d d d d d d d d d d d d d d d d &.} 3 3 3 3 *.=.= = = = = = # . . .         ",
"          . . + ' = = = = = = = D.E.8 8 8 8 8 8 8 8 8 8 8 8 8 8 8 8 8 8 8 8 8 8 8 8 8 8 8 8 8 8 8 F.5 = = = = ' + . .           ",
"          . . . > = = = = = = = G.H.H.H.H.H.H.H.H.H.H.H.H.H.H.H.H.H.H.H.H.H.H.H.H.H.H.H.H.H.H.H.H.I.J.= = = = > . . .           ",
"            . . . ) ; = = = = = = = = = = = = = = = = = = = = = = = = = = = = = = = = = = = = = = = = = = ; ) . . .             ",
"              . . . ! ; = = = = = = = = = = = = = = = = = = = = = = = = = = = = = = = = = = = = = = = = ; ! . . .               ",
"              . . . . # ; = = = = = = = = = = = = = = = = = = = = = = = = = = = = = = = = = = = = = = ; # . . . .               ",
"                . . . . ! ; = = = = = = = = = = = = = = = = = = = = = = = = = = = = = = = = = = = = ; ! . . . .                 ",
"                  . . . . ) = = = = = = = = = = = = = = = = = = = = = = = = = = = = = = = = = = = = ) . . . .                   ",
"                    . . . . > ' = = = = = = = = = = = = = = = = = = = = = = = = = = = = = = = = ' > . . . .                     ",
"                      . . . . + # = = = = = = = = = = = = = = = = = = = = = = = = = = = = = = # + . . . .                       ",
"                          . . . . > $ ; = = = = = = = = = = = = = = = = = = = = = = = = ; $ > . . . .                           ",
"                            . . . . . > , = = = = = = = = = = = = = = = = = = = = = = , > . . . . .                             ",
"                                . . . . . . - % = ; = = = = = = = = = = = = ; = % - . . . . . .                                 ",
"                                  . . . . . . . . @ # $ % & * = = * & % $ # @ . . . . . . . .                                   ",
"                                        . . . . . . . . . + + + + + + . . . . . . . . .                                         ",
"                                            . . . . . . . . . . . . . . . . . . . .                                             ",
"                                                    . . . . . . . . . . . .                                                     "};
