/* XPM */
static char * D:\workspace\github\bitbaba\bitgold\share\pixmaps\bitcoin16_xpm[] = {
"16 16 62 1",
" 	c None",
".	c #EDC500",
"+	c #EFC700",
"@	c #F2CA00",
"#	c #EEC600",
"$	c #F4CC00",
"%	c #FDD500",
"&	c #FFD800",
"*	c #FBD300",
"=	c #FFD700",
"-	c #F2CD02",
";	c #FFE500",
">	c #28231F",
",	c #FFE600",
"'	c #FFD600",
")	c #AD960C",
"!	c #171522",
"~	c #BAA20A",
"{	c #574B18",
"]	c #6E5E15",
"^	c #584B18",
"/	c #FFDD00",
"(	c #C6AA08",
"_	c #A5900D",
":	c #C3A809",
"<	c #0B0A23",
"[	c #F1CC02",
"}	c #FFDE00",
"|	c #5A4D18",
"1	c #FFE700",
"2	c #2D281F",
"3	c #7E7113",
"4	c #E8C403",
"5	c #8A7611",
"6	c #99830F",
"7	c #1C1821",
"8	c #FFE400",
"9	c #FFD900",
"0	c #665816",
"a	c #FFE100",
"b	c #FFDC00",
"c	c #121023",
"d	c #A9940D",
"e	c #FAD601",
"f	c #716415",
"g	c #6F6015",
"h	c #453B1B",
"i	c #FFE200",
"j	c #726615",
"k	c #AF950B",
"l	c #B89D0A",
"m	c #957F0F",
"n	c #0A0A24",
"o	c #DDBB05",
"p	c #FFDA00",
"q	c #CDAD07",
"r	c #C5A608",
"s	c #C5A708",
"t	c #C6A708",
"u	c #CBAB07",
"v	c #E0C005",
"w	c #FBD200",
"     .+@@+.     ",
"   #$%&&&&%$#   ",
"  #*====-&==*#  ",
" #*====;>,===*# ",
" $====')!~'===$ ",
".%====;{]^/===%.",
"+&====(_:<[===&+",
"@&===}|,123&==&@",
"@&===45==678==&@",
"+&==90a==bcd'=&+",
".%==ef===9ghi=%.",
" $=&jkllllmno=$ ",
" #*pqrsssstuvw# ",
"  #*========*#  ",
"   #$%&&&&%$#   ",
"     .+@@+.     "};
